<?xml version="1.0" encoding="UTF-8" standalone="no"?>
<svg width="170px" height="37px" viewBox="0 0 170 37" version="1.1" xmlns="http://www.w3.org/2000/svg" xmlns:xlink="http://www.w3.org/1999/xlink">
    <!-- Generator: Sketch 40.1 (33804) - http://www.bohemiancoding.com/sketch -->
    <title>WITH TAGLINE Copy 2</title>
    <desc>Created with Sketch.</desc>
    <defs></defs>
    <g id="Page-1" stroke="none" stroke-width="1" fill="none" fill-rule="evenodd">
        <g id="Tech---with-Graphics" transform="translate(-115.000000, -19.000000)" fill="#EC9C2D">
            <g id="WITH-TAGLINE-Copy-2" transform="translate(115.000000, 19.000000)">
                <path d="M0.309798668,16.1878919 C0.808293704,14.6487076 2.45743258,13.8044492 3.997489,14.306536 C5.37098944,14.7545339 6.18969423,16.1279237 5.98677743,17.5165996 L10.9858029,19.1369174 C10.8473973,19.4438136 10.7418336,19.7706992 10.6714578,20.1105191 L5.66656768,18.4866737 C5.00972716,19.7130826 3.55412165,20.3304025 2.18648586,19.8859322 C0.649948222,19.3838453 -0.189869297,17.729428 0.309798668,16.1878919 L0.309798668,16.1878919 Z M0.309798668,25.8980403 C-0.189869297,24.3576801 0.649948222,22.7032627 2.18648586,22.2023517 C3.56702388,21.7543538 5.03318575,22.3869597 5.68298869,23.6345339 L10.6749766,21.9942267 C10.7453524,22.3340466 10.852089,22.6597564 10.9916676,22.9678284 L5.99264208,24.6104873 C6.17444615,25.9862288 5.36043308,27.3384534 3.997489,27.7840996 C2.45743258,28.2850106 0.808293704,27.4372246 0.309798668,25.8980403 L0.309798668,25.8980403 Z M6.00202551,33.755053 C7.30749604,34.7063136 9.13961191,34.4182309 10.0896848,33.107161 C10.9306753,31.9454237 10.8004801,30.3744915 9.84806133,29.3691419 L12.9281742,25.0902331 C12.6302501,24.9197352 12.3546117,24.7198411 12.1024318,24.4905508 L9.02935654,28.760053 C7.77432198,28.1262712 6.20963403,28.4802013 5.35456843,29.6584004 C4.40449554,30.9671186 4.69538205,32.8014407 6.00202551,33.755053 L6.00202551,33.755053 Z M24.4228832,8.33323093 C23.1185856,7.38197034 21.2864698,7.66887712 20.3375698,8.98229873 C19.4942335,10.1452119 19.6256016,11.7161441 20.5791933,12.7214936 L17.4967346,16.9980508 C17.7958316,17.1685487 18.07147,17.3696186 18.3236499,17.5977331 L21.3967251,13.3294068 C22.6541056,13.9620127 24.2176206,13.6092585 25.0715133,12.4298835 C26.0215862,11.1199894 25.7318726,9.28566737 24.4228832,8.33323093 L24.4228832,8.33323093 Z M30.116283,16.1878919 C30.6171239,17.729428 29.7761335,19.3838453 28.2384229,19.8859322 C26.8614037,20.3327542 25.391723,19.7013242 24.743093,18.4561017 L19.7499321,20.0940572 C19.6807293,19.7542373 19.5739927,19.4273517 19.4332412,19.1204555 L24.4346125,17.4777966 C24.2516355,16.1044068 25.0668215,14.7498305 26.4297656,14.306536 C27.9674762,13.8044492 29.617788,14.6487076 30.116283,16.1878919 L30.116283,16.1878919 Z M30.116283,25.8980403 C29.617788,27.4372246 27.9674762,28.2850106 26.4297656,27.7840996 C25.0527464,27.33375 24.2375604,25.9603602 24.4404772,24.5728602 L19.4402787,22.9525424 C19.5798574,22.6432945 19.685421,22.3175847 19.7546239,21.9777648 L24.7606869,23.6016102 C25.4163545,22.3752013 26.87196,21.7567055 28.2384229,22.2023517 C29.7761335,22.7032627 30.6171239,24.3576801 30.116283,25.8980403 L30.116283,25.8980403 Z M24.4228832,33.755053 C25.7306996,32.8014407 26.0215862,30.9671186 25.0715133,29.6584004 C24.2234852,28.4907839 22.67991,28.1333263 21.4295672,28.7412394 L18.3365521,24.4787924 C18.0855452,24.7092585 17.8099067,24.9115042 17.5131556,25.0808263 L20.6049977,29.3409216 C19.6291204,30.3450953 19.4871959,31.9336653 20.3363969,33.107161 C21.2864698,34.4182309 23.1185856,34.7063136 24.4228832,33.755053 L24.4228832,33.755053 Z M15.2130408,5.33246822 C16.8293377,5.33246822 18.138327,6.64353814 18.138327,8.26620763 C18.138327,9.71367585 17.0967656,10.9106886 15.7232652,11.1529131 L15.7232652,16.4254131 C15.5555363,16.4054237 15.3854615,16.3960169 15.2118679,16.3960169 C15.0394473,16.3960169 14.8705454,16.4054237 14.7016436,16.4254131 L14.7016436,11.1529131 C13.3293161,10.9106886 12.2877547,9.71367585 12.2877547,8.26620763 C12.2877547,6.64353814 13.596744,5.33246822 15.2130408,5.33246822 L15.2130408,5.33246822 Z M15.7232652,30.9353708 C17.0967656,31.1787712 18.138327,32.3769597 18.138327,33.824428 C18.138327,35.4459216 16.8293377,36.7546398 15.2130408,36.7546398 C13.596744,36.7546398 12.2877547,35.4459216 12.2877547,33.824428 C12.2877547,32.3769597 13.3293161,31.1787712 14.7016436,30.9353708 L14.7016436,25.6640466 C14.8705454,25.6828602 15.0394473,25.6922669 15.2118679,25.6922669 C15.3854615,25.6922669 15.5555363,25.6828602 15.7232652,25.6640466 L15.7232652,30.9353708 L15.7232652,30.9353708 Z M15.2130408,18.1104025 C13.5979169,18.1104025 12.2877547,19.4238242 12.2877547,21.0453178 C12.2877547,22.6668114 13.596744,23.9767055 15.2130408,23.9790572 C16.8293377,23.9767055 18.1371541,22.6668114 18.1371541,21.0453178 C18.1371541,19.4238242 16.8281648,18.1104025 15.2130408,18.1104025 L15.2130408,18.1104025 Z M6.00319844,8.33323093 C4.69420912,9.28566737 4.40449554,11.1199894 5.35456843,12.4298835 C6.20142353,13.5986758 7.74499874,13.9549576 8.99534159,13.3470445 L12.0895296,17.6094915 C12.3405365,17.3802013 12.6161749,17.1767797 12.9117532,17.0074576 L9.81991102,12.749714 C10.7969613,11.7455403 10.9388858,10.1546186 10.0885119,8.98229873 C9.13961191,7.66887712 7.30749604,7.38197034 6.00319844,8.33323093 L6.00319844,8.33323093 Z" id="Fill-15"></path>
                <path d="M52.4746651,22.2482097 C50.6437221,21.9154449 48.283788,21.3557415 46.8012051,20.2763136 C44.8963676,19.1569068 43.8196183,17.4989619 43.8196183,15.2636758 C43.8196183,12.9860593 44.9526682,11.2128814 46.7660172,9.8759428 C48.6544337,8.57427966 50.8900373,8.09923729 53.1537913,8.09923729 C54.22233,8.09923729 55.2721019,8.27914195 56.2878589,8.60602754 C57.0725487,8.86118644 57.9276143,9.16102754 58.6524847,9.55846398 C59.3820469,9.95942797 60.1104361,10.4156568 60.8399982,10.8789407 C61.2528694,11.1893644 61.5285079,11.6220763 61.6282069,12.1265148 C61.7302517,12.6321292 61.6540113,13.1236335 61.3830646,13.5598729 C61.1027344,14.0102225 60.6746152,14.2877225 60.1573533,14.391197 C59.6553394,14.4946716 59.1568444,14.4135381 58.7099583,14.1336864 C58.1117642,13.7244915 57.4959762,13.304714 56.8754965,12.9307945 C56.3758286,12.6274258 55.7447925,12.3922564 55.1958615,12.1970657 C54.5401939,11.9642479 53.8516843,11.8149153 53.1537913,11.8149153 C51.74393,11.8149153 50.2202946,12.0641949 49.0919364,12.9719492 C48.4315771,13.5046081 47.7254735,14.2583263 47.7254735,15.1637288 C47.7254735,16.0009322 48.1911266,16.6182521 48.8057416,17.1038771 C50.0983099,17.9916419 51.877644,18.4220021 53.4094899,18.6606992 L53.508016,18.6606992 L53.5631436,18.6701059 C55.7295444,19.0052225 57.816186,19.6860381 59.7585572,20.7701695 C61.7032743,22.0447881 62.8363242,23.849714 62.8363242,26.2014089 C62.8363242,28.5719174 61.7079661,30.4297564 59.8301059,31.8254873 C57.883043,33.2776589 55.6755897,33.9890466 53.2476256,33.9890466 C49.6924763,33.9525953 46.5455065,32.552161 43.7820846,30.3286335 C42.9235002,29.5702119 42.810899,28.5907309 43.5228672,27.7241314 C43.8442498,27.2902436 44.2934818,27.0421398 44.8295106,26.986875 C45.372577,26.9339619 45.8581698,27.0974047 46.2440636,27.4348729 C48.1101944,28.8035593 50.4759932,30.124036 52.8546942,30.124036 C54.4510513,30.124036 56.152972,29.8183157 57.450232,28.7647564 C58.2431323,28.2273941 58.9703486,27.4854343 58.9551005,26.4636229 C58.9398525,25.4488665 58.3557336,24.6763347 57.5898106,24.0613665 C56.3406407,23.0571928 54.2305405,22.5750953 52.6857924,22.3199364 L52.5778829,22.3011229 L52.4746651,22.2482097 L52.4746651,22.2482097 Z M69.194775,30.1452013 C66.8066906,27.5936123 65.6161671,24.543464 65.6161671,21.0429661 C65.6161671,17.5448199 66.8078635,14.4958475 69.194775,11.9430826 C71.5453258,9.43147246 74.4412887,8.09923729 77.8838367,8.09923729 C81.3263848,8.09923729 84.2200019,9.43147246 86.5717255,11.9430826 C88.95981,14.4958475 90.1515063,17.5448199 90.1515063,21.0429661 C90.1515063,24.543464 88.95981,27.5936123 86.5717255,30.1452013 C84.2211748,32.6568114 81.3263848,33.9890466 77.8838367,33.9890466 C74.4401157,33.9890466 71.5453258,32.6568114 69.194775,30.1452013 L69.194775,30.1452013 Z M105.174387,32.5262924 C105.096974,32.8543538 104.922207,33.1483157 104.705216,33.4058263 C104.381487,33.7868008 103.94633,33.9890466 103.449008,33.9890466 C103.046693,33.9890466 102.659626,33.8949788 102.299537,33.7138983 L102.191628,33.6586335 L102.107177,33.5739725 C101.880801,33.3458581 101.669674,33.0824682 101.552381,32.7885064 L92.4093956,10.9741843 C92.1947495,10.4850318 92.1970954,9.97001059 92.4140873,9.47850636 C92.8926426,8.42847458 93.7887607,7.97106992 94.8561266,8.45199153 C95.3675238,8.65658898 95.7381695,9.00816737 95.9058985,9.50790254 L103.32585,27.1220975 L110.734073,9.53377119 C110.906494,9.02110169 111.266583,8.66364407 111.762732,8.45434322 C112.255363,8.24739407 112.773798,8.24151483 113.261736,8.45669492 C114.346696,8.9246822 114.686846,9.8759428 114.242305,10.9636017 L105.174387,32.5262924 L105.174387,32.5262924 Z M123.140148,13.0366208 C125.455511,10.0558475 128.502782,8.14744703 132.495434,8.14744703 C133.019734,8.14744703 133.490078,8.34028602 133.858378,8.71185381 C134.230197,9.08459746 134.424903,9.55493644 134.424903,10.0805403 C134.424903,10.6073199 134.230197,11.0776589 133.860724,11.4480508 C133.490078,11.8219703 133.019734,12.0136335 132.495434,12.0136335 C129.741396,12.0136335 127.647716,13.6045551 126.022036,15.7069703 C124.784596,17.3625636 123.875575,19.2403919 123.198795,21.1875953 L123.183547,21.2334534 L123.140148,21.3416314 L123.140148,32.0583051 C123.140148,32.5839089 122.946615,33.0518962 122.575969,33.4269915 C122.205324,33.7985593 121.734979,33.9890466 121.210679,33.9890466 C120.688726,33.9890466 120.218381,33.7985593 119.845389,33.4246398 C119.474744,33.0518962 119.28121,32.5839089 119.28121,32.0583051 L119.28121,10.0805403 C119.28121,9.55493644 119.474744,9.08459746 119.845389,8.70950212 C120.218381,8.34146186 120.68638,8.14744703 121.210679,8.14744703 C121.734979,8.14744703 122.205324,8.34146186 122.578315,8.71185381 C122.946615,9.08459746 123.140148,9.55493644 123.140148,10.0805403 L123.140148,13.0366208 L123.140148,13.0366208 Z M139.131869,32.0583051 L139.131869,10.0299788 C139.131869,9.504375 139.326575,9.03403602 139.696048,8.66246822 C140.06904,8.28737288 140.552287,8.09923729 141.083624,8.09923729 C141.616134,8.09923729 142.101727,8.28737288 142.474718,8.66246822 C142.843018,9.03403602 143.037724,9.50907839 143.037724,10.0299788 L143.037724,32.0583051 C143.037724,32.5956674 142.825424,33.0777648 142.43132,33.4446292 C142.051291,33.7985593 141.583292,33.9890466 141.058992,33.9890466 C140.537039,33.9890466 140.062002,33.7962076 139.693702,33.4246398 C139.326575,33.0565996 139.131869,32.5839089 139.131869,32.0583051 L139.131869,32.0583051 Z M139.131869,3.20418432 L139.131869,2.06008475 C139.131869,1.53212924 139.321884,1.06179025 139.693702,0.690222458 C140.064348,0.317478814 140.534693,0.125815678 141.058992,0.125815678 C141.583292,0.125815678 142.048945,0.313951271 142.43132,0.670233051 C142.82777,1.03944915 143.037724,1.52154661 143.037724,2.06008475 L143.037724,3.20418432 C143.037724,3.75448093 142.843018,4.2565678 142.448914,4.64694915 C142.07123,5.02792373 141.597367,5.23722458 141.058992,5.23722458 C140.520618,5.23722458 140.044408,5.02439619 139.677281,4.62931144 C139.308982,4.23540254 139.131869,3.74389831 139.131869,3.20418432 L139.131869,3.20418432 Z M148.813229,33.0460169 C148.65723,32.8755191 148.630252,32.7885064 148.627906,32.6297669 L148.57747,32.5286441 L148.57747,10.0805403 C148.57747,9.55493644 148.769831,9.08459746 149.141649,8.71185381 C149.512295,8.34146186 149.981467,8.14744703 150.506939,8.14744703 C151.033585,8.14744703 151.505102,8.34498941 151.865192,8.73184322 C152.211206,9.10693856 152.3848,9.57139831 152.3848,10.0805403 L152.3848,10.6049682 C154.19463,9.00581568 156.373933,8.14744703 158.929746,8.14744703 C161.933619,8.14744703 164.57271,9.13751059 166.707442,11.2799047 C168.776489,13.350572 169.832126,15.8680614 169.832126,18.800625 L169.832126,32.0583051 C169.832126,32.5839089 169.639765,33.0542479 169.26912,33.4269915 C168.897301,33.7985593 168.428129,33.9890466 167.906176,33.9890466 C167.378357,33.9890466 166.909185,33.7985593 166.53854,33.4246398 C166.166721,33.0542479 165.974361,32.5839089 165.974361,32.0583051 L165.974361,18.800625 C165.974361,16.9263242 165.315174,15.3448093 163.999147,14.0125742 C162.681948,12.6756356 161.104357,12.0136335 159.230016,12.0136335 C157.358021,12.0136335 155.78043,12.665053 154.456193,13.9902331 C153.120226,15.3306992 152.444619,16.9275 152.3848,18.8076801 L152.3848,32.3475636 L152.362514,32.4345763 C152.130274,33.3717267 151.495719,33.9890466 150.506939,33.9890466 L150.110489,33.9890466 L150.014309,33.9643538 C149.491182,33.8220763 149.079484,33.5069492 148.813229,33.0460169 L148.813229,33.0460169 Z M77.8838367,11.9136864 C75.5227297,11.9136864 73.5909148,12.8578919 71.9816555,14.5734534 C70.2820807,16.387786 69.4715864,18.5337076 69.4715864,21.020625 C69.4715864,23.5051907 70.2832536,25.6522881 71.9816555,27.4666208 C73.5909148,29.1821822 75.5227297,30.124036 77.8838367,30.124036 C80.242598,30.124036 82.1755858,29.1821822 83.7836721,27.4666208 C85.4844199,25.6522881 86.2937412,23.5051907 86.2937412,21.020625 C86.2937412,18.5337076 85.4855928,16.387786 83.7836721,14.5734534 C82.1755858,12.8578919 80.2437709,11.9136864 77.8838367,11.9136864 L77.8838367,11.9136864 Z" id="Fill-16"></path>
            </g>
        </g>
    </g>
</svg>