<?xml version="1.0" encoding="UTF-8" standalone="no"?>
<svg width="199px" height="22px" viewBox="0 0 199 22" version="1.1" xmlns="http://www.w3.org/2000/svg" xmlns:xlink="http://www.w3.org/1999/xlink">
    <!-- Generator: Sketch 40.1 (33804) - http://www.bohemiancoding.com/sketch -->
    <title>Group</title>
    <desc>Created with Sketch.</desc>
    <defs></defs>
    <g id="Page-1" stroke="none" stroke-width="1" fill="none" fill-rule="evenodd">
        <g id="Tech---with-Graphics" transform="translate(-313.000000, -34.000000)" fill="#EC9C2D">
            <g id="Group" transform="translate(313.000000, 34.000000)">
                <path d="M1.03480912,17.0164407 L2.28330727,17.0164407 L2.28330727,5.42689661 L1.03480912,5.42689661 L1.03480912,17.0164407 Z M0.698675001,2.64348644 C0.698675001,2.11559831 1.15485702,1.70768475 1.65905819,1.70768475 C2.18726895,1.70768475 2.61944139,2.11559831 2.61944139,2.64348644 C2.61944139,3.17137458 2.18726895,3.60143729 1.65905819,3.60143729 C1.15485702,3.60143729 0.698675001,3.17137458 0.698675001,2.64348644 L0.698675001,2.64348644 Z" id="Fill-1"></path>
                <path d="M18.9219461,14.1130559 L18.9219461,8.37827119 C18.2496778,7.25051017 16.7370743,6.26671864 15.1044229,6.26671864 C12.5353978,6.26671864 11.0468039,8.42626102 11.0468039,11.2336661 C11.0468039,14.0410712 12.5353978,16.1766186 15.1044229,16.1766186 C16.7370743,16.1766186 18.2496778,15.216822 18.9219461,14.1130559 L18.9219461,14.1130559 Z M18.9219461,17.0164407 L18.9219461,15.1688322 C18.1056204,16.368578 16.6170264,17.3043797 14.8883367,17.3043797 C11.8151105,17.3043797 9.72627701,14.952878 9.72627701,11.2336661 C9.72627701,7.56244407 11.8151105,5.13711186 14.8883367,5.13711186 C16.5449977,5.13711186 18.009582,5.97877966 18.9219461,7.29665424 L18.9219461,1.0118322 L20.1944538,1.0118322 L20.1944538,17.0164407 L18.9219461,17.0164407 L18.9219461,17.0164407 Z" id="Fill-2"></path>
                <path d="M33.1836365,6.21688305 C30.4465444,6.21688305 29.0779983,8.61822034 28.98196,10.6337932 L37.4093225,10.6337932 C37.385313,8.66621017 36.0887956,6.21688305 33.1836365,6.21688305 L33.1836365,6.21688305 Z M27.6374235,11.2096712 C27.6374235,7.85038305 29.9903624,5.13711186 33.2076461,5.13711186 C36.7370543,5.13711186 38.6818303,7.9223678 38.6818303,11.2816559 L38.6818303,11.6175847 L28.98196,11.6175847 C29.1020079,14.1352051 30.7826785,16.2246085 33.5197706,16.2246085 C34.984355,16.2246085 36.3288914,15.6708797 37.3132842,14.6169492 L37.9615429,15.4327763 C36.809083,16.632522 35.3444987,17.3043797 33.4237323,17.3043797 C30.0383815,17.3043797 27.6374235,14.7849136 27.6374235,11.2096712 L27.6374235,11.2096712 Z" id="Fill-3"></path>
                <path d="M53.9279134,17.0164407 L53.9279134,9.17010339 C53.9279134,6.93857627 52.7994632,6.26671864 51.1187926,6.26671864 C49.6301987,6.26671864 48.0935855,7.20252034 47.3492886,8.25829661 L47.3492886,17.0164407 L46.1007904,17.0164407 L46.1007904,5.42689661 L47.3492886,5.42689661 L47.3492886,7.17852542 C48.1896239,6.17073898 49.8462849,5.13711186 51.5269555,5.13711186 C53.8798943,5.13711186 55.1764116,6.2888678 55.1764116,8.90431356 L55.1764116,17.0164407 L53.9279134,17.0164407" id="Fill-4"></path>
                <path d="M63.5058889,14.7849136 L63.5058889,6.52881695 L61.5851225,6.52881695 L61.5851225,5.42689661 L63.5058889,5.42689661 L63.5058889,2.2595678 L64.7783966,2.2595678 L64.7783966,5.42689661 L67.1331823,5.42689661 L67.1331823,6.52881695 L64.7783966,6.52881695 L64.7783966,14.5929542 C64.7783966,15.5287559 65.1625499,16.1766186 65.9807225,16.1766186 C66.5329428,16.1766186 67.0112875,15.9126746 67.2772398,15.6247356 L67.7574314,16.5845322 C67.3012494,17.0164407 66.7490291,17.3043797 65.786799,17.3043797 C64.2501859,17.3043797 63.5058889,16.368578 63.5058889,14.7849136" id="Fill-5"></path>
                <path d="M74.0719509,17.0164407 L75.3204491,17.0164407 L75.3204491,5.42689661 L74.0719509,5.42689661 L74.0719509,17.0164407 Z M73.7358168,2.64348644 C73.7358168,2.11559831 74.1919988,1.70768475 74.6962,1.70768475 C75.2244107,1.70768475 75.6565832,2.11559831 75.6565832,2.64348644 C75.6565832,3.17137458 75.2244107,3.60143729 74.6962,3.60143729 C74.1919988,3.60143729 73.7358168,3.17137458 73.7358168,2.64348644 L73.7358168,2.64348644 Z" id="Fill-6"></path>
                <path d="M83.6499264,14.7849136 L83.6499264,6.52881695 L81.72916,6.52881695 L81.72916,5.42689661 L83.6499264,5.42689661 L83.6499264,2.2595678 L84.924281,2.2595678 L84.924281,5.42689661 L87.2772198,5.42689661 L87.2772198,6.52881695 L84.924281,6.52881695 L84.924281,14.5929542 C84.924281,15.5287559 85.3084343,16.1766186 86.12476,16.1766186 C86.6769803,16.1766186 87.1571719,15.9126746 87.4194304,15.6247356 L87.9014689,16.5845322 C87.4452869,17.0164407 86.8930665,17.3043797 85.9326833,17.3043797 C84.3942233,17.3043797 83.6499264,16.368578 83.6499264,14.7849136" id="Fill-7"></path>
                <path d="M93.6619211,20.3997237 C93.9278734,20.5196983 94.3822085,20.5935288 94.6703235,20.5935288 C95.43863,20.5935288 95.9668408,20.2797492 96.4470324,19.1759831 L97.3593964,17.1124203 L92.4374326,5.42689661 L93.8299882,5.42689661 L98.0556742,15.5527508 L102.235188,5.42689661 L103.649906,5.42689661 L97.6475114,19.5599017 C97.0232623,21.0235915 96.0388695,21.7194441 94.69618,21.7194441 C94.2861702,21.7194441 93.7579595,21.6474593 93.4458349,21.5514797 L93.6619211,20.3997237" id="Fill-8"></path>
                <path d="M120.792746,17.0164407 L120.792746,6.52881695 L118.87198,6.52881695 L118.87198,5.42689661 L120.792746,5.42689661 L120.792746,4.36927458 C120.792746,2.11559831 121.993225,0.770037288 123.939848,0.770037288 C124.754327,0.770037288 125.404433,0.939847458 126.146883,1.58771017 L125.54849,2.49951695 C125.16249,2.13774746 124.682298,1.89964407 124.058049,1.89964407 C122.737522,1.89964407 122.065254,2.81145085 122.065254,4.36927458 L122.065254,5.42689661 L124.418193,5.42689661 L124.418193,6.52881695 L122.065254,6.52881695 L122.065254,17.0164407 L120.792746,17.0164407" id="Fill-9"></path>
                <path d="M140.096448,11.2096712 C140.096448,8.64221525 138.583845,6.26671864 135.846753,6.26671864 C133.15768,6.26671864 131.621067,8.64221525 131.621067,11.2096712 C131.621067,13.801122 133.15768,16.1766186 135.846753,16.1766186 C138.583845,16.1766186 140.096448,13.801122 140.096448,11.2096712 L140.096448,11.2096712 Z M130.30054,11.2096712 C130.30054,7.82638814 132.461402,5.13711186 135.846753,5.13711186 C139.280123,5.13711186 141.440985,7.82638814 141.440985,11.2096712 C141.440985,14.5929542 139.280123,17.3043797 135.846753,17.3043797 C132.461402,17.3043797 130.30054,14.5929542 130.30054,11.2096712 L130.30054,11.2096712 Z" id="Fill-10"></path>
                <path d="M148.859945,17.0164407 L148.859945,5.42689661 L150.11029,5.42689661 L150.11029,7.41847458 C151.092836,6.12274915 152.41521,5.18694746 154.023852,5.18694746 L154.023852,6.55465763 C153.805919,6.5066678 153.637852,6.5066678 153.397756,6.5066678 C152.221286,6.5066678 150.636654,7.56244407 150.11029,8.57023051 L150.11029,17.0164407 L148.859945,17.0164407" id="Fill-11"></path>
                <path d="M178.46191,14.7369237 L178.46191,12.1934627 C177.647431,11.1136915 176.350914,10.5858034 174.958358,10.5858034 C173.059755,10.5858034 171.787247,11.8095441 171.787247,13.4651932 C171.787247,15.0968475 173.059755,16.3205881 174.958358,16.3205881 C176.350914,16.3205881 177.647431,15.7927 178.46191,14.7369237 L178.46191,14.7369237 Z M178.46191,17.0164407 L178.46191,15.6487305 C177.431345,16.7764915 176.132981,17.3043797 174.524339,17.3043797 C172.531544,17.3043797 170.46672,15.9366695 170.46672,13.4411983 C170.46672,10.9217322 172.507534,9.6001661 174.524339,9.6001661 C176.132981,9.6001661 177.453508,10.1299 178.46191,11.257661 L178.46191,8.90431356 C178.46191,7.17852542 177.069355,6.24272373 175.364674,6.24272373 C173.90009,6.24272373 172.77164,6.74661695 171.715218,7.94636271 L171.01894,7.08254576 C172.219419,5.78682034 173.563956,5.13711186 175.486569,5.13711186 C177.837661,5.13711186 179.710408,6.26671864 179.710408,8.85816949 L179.710408,17.0164407 L178.46191,17.0164407 L178.46191,17.0164407 Z" id="Fill-12"></path>
                <polygon id="Fill-13" points="187.803484 17.0164407 189.051982 17.0164407 189.051982 1.0118322 187.803484 1.0118322"></polygon>
                <polygon id="Fill-14" points="197.141363 17.0164407 198.391708 17.0164407 198.391708 1.0118322 197.141363 1.0118322"></polygon>
            </g>
        </g>
    </g>
</svg>